<svg xmlns="http://www.w3.org/2000/svg" width="55.426" height="34.054" fill="none"><path fill="#ff5f00" d="M35.208 30.416H20.217V3.643h14.99z"/><path fill="#eb001b" d="M21.177 17.027c0-5.43 2.559-10.269 6.544-13.386A17.13 17.13 0 0 0 17.132 0C7.67 0 0 7.623 0 17.027s7.67 17.027 17.132 17.027c3.997 0 7.675-1.36 10.589-3.64-3.985-3.118-6.544-7.956-6.544-13.387"/><path fill="#f79e1b" d="M55.426 17.027c0 9.404-7.67 17.027-17.132 17.027-3.997 0-7.674-1.36-10.59-3.64 3.986-3.118 6.545-7.956 6.545-13.387 0-5.43-2.559-10.269-6.545-13.386A17.13 17.13 0 0 1 38.295 0c9.462 0 17.132 7.623 17.132 17.027"/></svg>