<svg xmlns="http://www.w3.org/2000/svg" width="48" height="48" fill="none"><g clip-path="url(#a)"><path fill="#fff" d="M48 24c0 13.242-10.74 24-24.011 24C10.74 47.977 0 37.242 0 24S10.74 0 24.012 0C37.26 0 48 10.735 48 24"/><path fill="#00623D" d="M26.391 10.37c-.205-.045-1.23-.205-2.414-.205s-2.208.16-2.413.206c-.114.022-.16-.092-.069-.16s2.482-1.892 2.482-1.892 2.391 1.824 2.482 1.892.046.182-.068.16m-4.167 11.875s-.137.046-.16.16c.502.387.843 1.276 1.89 1.276 1.048 0 1.39-.889 1.89-1.276-.022-.114-.159-.16-.159-.16s-.66.16-1.73.16-1.731-.16-1.731-.16m1.753-1.481c-.296 0-.364-.114-.546-.114s-.547.16-.638.296c0 .068.023.137.091.182.433.069.615.297 1.116.297.5 0 .683-.228 1.116-.297a.5.5 0 0 0 .09-.182c-.068-.137-.455-.296-.637-.296-.25 0-.319.114-.592.114M47.909 25.3c-.023.57-.091 1.14-.16 1.71-2.71.456-3.688-1.96-6.466-1.846.16.592.296 1.185.41 1.8 2.3 0 3.21 2.142 5.76 1.823a27 27 0 0 1-.478 1.938c-2.026.205-2.732-1.801-5.055-1.755.023.342.023.66.023 1.003v.57c1.981-.023 2.642 1.823 4.531 1.732-.227.638-.5 1.276-.796 1.891-1.367-.068-1.822-1.823-3.894-1.686-.069.456-.137.889-.228 1.322 1.799-.137 2.186 1.527 3.484 1.663a28 28 0 0 1-1.047 1.755c-.775-.41-1.435-1.64-2.87-1.732.16-.456.274-.911.388-1.39-1.276 0-2.756-.501-3.985-1.618.387-2.28-3.143-4.604-3.143-6.268 0-1.8.911-2.803.911-5.242 0-1.824-.888-3.784-2.208-5.128a4.5 4.5 0 0 0-.82-.661c1.207 1.504 2.163 3.304 2.163 5.356 0 2.302-1.07 3.51-1.07 5.63s3.096 3.965 3.096 6.153c0 .866-.273 1.71-1.183 3.35 1.388 1.391 3.21 2.143 4.371 2.143.388 0 .592-.114.729-.41.114-.25.228-.524.342-.775 1.252.045 1.844 1.185 2.527 1.664a19 19 0 0 1-1.207 1.481c-.478-.524-1.093-1.39-2.026-1.64-.16.318-.342.637-.524.957.797.205 1.343 1.025 1.753 1.55-.455.478-.933.911-1.411 1.344-.296-.478-.775-1.071-1.321-1.413-.205.274-.41.524-.615.775.456.32.865.866 1.116 1.322-.57.456-1.162.889-1.754 1.3-.296-2.44-3.62-4.103-2.732-6.93-.296.502-.638 1.117-.638 1.87 0 2.05 2.186 3.669 2.346 5.697-.456.274-.911.525-1.39.775-.067-2.233-2.39-4.672-2.39-6.518 0-2.051 2.687-4.103 2.687-6.519s-3.097-4.102-3.097-6.222 1.32-3.35 1.32-6.063c0-1.982-.933-4.01-2.413-5.287-.25-.228-.5-.41-.82-.57 1.39 1.664 2.186 3.145 2.186 5.424 0 2.553-1.503 3.989-1.503 6.473 0 2.507 3.029 3.898 3.029 6.222s-2.824 4.308-2.824 6.701c0 2.188 2.482 4.354 2.528 6.952-.547.228-1.093.456-1.662.66.318-2.62-2.482-5.31-2.482-7.452 0-2.325 2.937-4.33 2.937-6.86 0-2.508-2.983-3.693-2.983-6.268 0-2.576 1.822-4.012 1.822-6.86 0-2.234-1.093-4.217-2.71-5.47-.023-.024-.068-.046-.091-.07-.16-.113-.273.024-.16.16 1.14 1.413 1.731 2.85 1.731 4.969 0 2.62-2.095 4.74-2.095 7.27 0 2.986 2.824 3.83 2.824 6.291 0 2.439-3.029 4.399-3.029 6.997 0 2.416 2.87 5.083 2.368 7.864-.569.16-1.16.273-1.753.387.547-3.464-2.277-5.949-2.277-8.228 0-2.461 3.12-4.65 3.12-7.043 0-2.256-2.255-3.008-2.55-5.31-.046-.32-.297-.547-.638-.502-.456.092-1.048.388-1.958.388-.911 0-1.503-.296-1.959-.388-.341-.068-.592.183-.637.502-.296 2.325-2.55 3.054-2.55 5.31 0 2.393 3.119 4.582 3.119 7.043 0 2.257-2.8 4.764-2.277 8.228a24 24 0 0 1-1.753-.388c-.501-2.78 2.368-5.447 2.368-7.863 0-2.598-3.029-4.558-3.029-6.997s2.824-3.305 2.824-6.29c0-2.53-2.095-4.65-2.095-7.271 0-2.12.615-3.556 1.73-4.969.114-.136-.022-.273-.159-.16-.023.024-.068.046-.091.07-1.594 1.23-2.71 3.236-2.71 5.47 0 2.848 1.822 4.284 1.822 6.86 0 2.575-2.983 3.76-2.983 6.267s2.937 4.513 2.937 6.86c0 2.143-2.8 4.833-2.482 7.454a21 21 0 0 1-1.662-.661c.046-2.598 2.528-4.764 2.528-6.952 0-2.393-2.824-4.376-2.824-6.7 0-2.325 3.029-3.738 3.029-6.223 0-2.507-1.503-3.92-1.503-6.473 0-2.279.797-3.783 2.186-5.424-.296.16-.57.342-.82.57-1.435 1.276-2.368 3.305-2.368 5.287 0 2.713 1.32 3.943 1.32 6.063s-3.096 3.806-3.096 6.222 2.687 4.468 2.687 6.519c0 1.846-2.3 4.285-2.391 6.518-.479-.25-.934-.501-1.39-.775.183-2.028 2.346-3.646 2.346-5.698 0-.752-.341-1.367-.638-1.869.889 2.827-2.436 4.49-2.732 6.93a25 25 0 0 1-1.753-1.3c.25-.456.66-1.003 1.115-1.322-.205-.25-.41-.524-.614-.775-.524.32-1.002.934-1.321 1.413a39 39 0 0 1-1.412-1.345c.41-.524.956-1.322 1.753-1.55-.182-.319-.364-.615-.523-.957-.911.25-1.549 1.117-2.027 1.641-.432-.478-.82-.98-1.207-1.481.706-.456 1.276-1.596 2.528-1.664.114.273.205.524.341.775.137.296.342.41.73.41 1.16 0 2.982-.752 4.371-2.142-.91-1.641-1.184-2.485-1.184-3.35 0-2.189 3.097-4.012 3.097-6.155 0-2.12-1.07-3.327-1.07-5.63 0-2.073.933-3.851 2.163-5.355a4.5 4.5 0 0 0-.82.66c-1.32 1.345-2.209 3.305-2.209 5.129 0 2.438.911 3.441.911 5.242 0 1.664-3.53 3.989-3.12 6.268-1.229 1.117-2.709 1.618-3.984 1.618.114.479.25.934.387 1.39-1.457.069-2.118 1.322-2.87 1.732a20 20 0 0 1-1.047-1.755c1.298-.136 1.685-1.8 3.484-1.663a13 13 0 0 1-.227-1.322c-2.073-.137-2.55 1.618-3.894 1.686a28 28 0 0 1-.797-1.891c1.89.09 2.55-1.755 4.531-1.733v-.57c0-.341 0-.683.023-1.002-2.323-.046-3.051 1.96-5.055 1.755a27 27 0 0 1-.478-1.938c2.55.32 3.46-1.823 5.76-1.823.114-.615.228-1.208.41-1.8-2.778-.114-3.757 2.302-6.466 1.846-.069-.57-.114-1.14-.16-1.71 3.143.365 4.327-2.233 7.218-1.914.274-.684.592-1.345.934-1.983-3.598-.638-4.827 2.37-8.175 1.914C.365 10.371 10.953 0 23.977 0c13.002 0 23.59 10.37 23.955 23.316-3.348.456-4.577-2.552-8.175-1.914.364.638.66 1.299.934 1.983 2.869-.32 4.053 2.279 7.218 1.914M13.662 15.248c-1.753-.73-3.893-.547-5.715.615-.273-1.71-1.207-3.213-2.527-4.125-.183-.137-.365 0-.365.205.274 3.601-1.821 6.7-4.394 9.459 2.664.798 4.918-2.621 8.356-1.436a18.3 18.3 0 0 1 4.645-4.718m10.315-2.165c-2.231 0-4.098 1.253-4.577 2.894-.045.114.023.205.16.137.41-.182.865-.274 1.343-.274.911 0 1.708.342 2.186.912.205.684.228 1.687 0 2.257-.364-.092-.5-.365-.865-.365-.364 0-.638.25-1.275.25-.615 0-.683-.296-1.093-.296-.478 0-.57.502-.57 1.049 0 2.484 2.278 5.903 4.714 5.903 2.414 0 4.69-3.419 4.69-5.903 0-.547-.113-1.026-.614-1.094-.25.182-.478.342-1.047.342-.615 0-.797-.251-1.162-.251-.432 0-.387.934-.91.98-.342-.843-.365-1.914-.069-2.872.478-.57 1.275-.911 2.186-.911.5 0 .956.09 1.343.273.137.069.205-.023.16-.137-.524-1.64-2.391-2.894-4.6-2.894m3.53 3.555c-.524 0-1.162.16-1.549.593a.52.52 0 0 0 .023.41c.956-.342 1.822-.342 2.232.114.227-.205.296-.387.296-.592 0-.297-.342-.525-1.002-.525m-7.765 1.14c.456-.479 1.457-.456 2.482-.069.046-.5-.865-1.07-1.776-1.07-.66 0-.98.227-.98.546-.022.205.046.388.274.593m15.324-8.41c-1.753.114-3.279.729-4.508 1.732a18.3 18.3 0 0 1 2.026-4.057c-2.231.228-4.098 1.048-5.465 2.461l-1.07-2.803 2.368-2.097-3.165-.228-1.275-2.963-1.275 2.963-3.165.228 2.368 2.097-1.07 2.803c-1.366-1.39-3.233-2.21-5.465-2.461a17.3 17.3 0 0 1 2.027 4.057c-1.23-1.003-2.756-1.618-4.509-1.732 1.047 1.367 1.981 2.803 2.687 4.353.068.182.25.228.433.137A18.1 18.1 0 0 1 24 11.988c2.869 0 5.579.684 7.992 1.87.182.09.342.022.433-.137.66-1.55 1.594-2.986 2.641-4.353m3.826 10.598c3.438-1.185 5.715 2.233 8.38 1.436-2.574-2.735-4.669-5.858-4.395-9.459.022-.205-.183-.342-.342-.205-1.32.912-2.231 2.416-2.527 4.125-1.822-1.185-3.962-1.344-5.716-.615a18.1 18.1 0 0 1 4.6 4.718"/></g><defs><clipPath id="a"><path fill="#fff" d="M0 0h48v48H0z"/></clipPath></defs></svg>