<svg xmlns="http://www.w3.org/2000/svg" width="69.037" height="20.971" fill="none"><path fill="#15195a" d="M29.916 20.669h-5.592L27.82.368h5.593zM50.189.864C49.086.454 47.336 0 45.173 0c-5.523 0-9.412 2.764-9.436 6.716-.046 2.916 2.785 4.536 4.902 5.508 2.163.993 2.899 1.642 2.899 2.527-.022 1.36-1.749 1.987-3.359 1.987-2.233 0-3.429-.323-5.247-1.08l-.736-.324-.783 4.557c1.312.561 3.728 1.059 6.237 1.08 5.868 0 9.688-2.72 9.734-6.932.022-2.311-1.473-4.082-4.695-5.53-1.956-.928-3.154-1.554-3.154-2.505.023-.864 1.014-1.749 3.222-1.749 1.818-.043 3.154.367 4.166.778l.505.215z"/><path fill="#15195a" fill-rule="evenodd" d="M60.2.368h4.325l4.512 20.3H63.86s-.507-2.332-.667-3.045h-7.18l-1.174 3.046H48.97l8.307-18.617C57.852.735 58.866.368 60.2.368m-.345 7.429s-1.772 4.514-2.233 5.68h4.649a1690 1690 0 0 1-1.29-5.874l-.39-1.75c-.165.45-.403 1.07-.563 1.488a17 17 0 0 0-.173.456M.092.368H9.09c1.22.043 2.21.41 2.531 1.707l1.955 9.326.001.003.599 2.807L19.653.368h5.913l-8.79 20.28h-5.914L5.877 3.008C4.157 2.064 2.195 1.305 0 .778z" clip-rule="evenodd"/></svg>