<svg xmlns="http://www.w3.org/2000/svg" viewBox="0 0 24 24" id="home"><g clip-path="url(#a)"><path fill="#366AB3" d="m23.4 10.392-.002-.002L13.608.6a2.2 2.2 0 0 0-1.562-.647A2.2 2.2 0 0 0 10.483.6L.698 10.385l-.01.01a2.21 2.21 0 0 0 .005 3.12 2.2 2.2 0 0 0 1.534.648h.39v7.204a2.59 2.59 0 0 0 2.586 2.586h3.83a.703.703 0 0 0 .703-.703v-5.648c0-.651.53-1.18 1.18-1.18h2.26c.65 0 1.18.529 1.18 1.18v5.648c0 .388.314.703.702.703h3.83a2.59 2.59 0 0 0 2.586-2.586v-7.204h.362a2.213 2.213 0 0 0 1.564-3.77m-.996 2.13a.8.8 0 0 1-.568.235h-1.065a.703.703 0 0 0-.703.703v7.907c0 .65-.529 1.18-1.18 1.18h-3.127v-4.945a2.59 2.59 0 0 0-2.586-2.586h-2.259a2.59 2.59 0 0 0-2.586 2.586v4.945H5.203c-.65 0-1.18-.53-1.18-1.18V13.46a.703.703 0 0 0-.703-.703H2.273l-.033-.002a.804.804 0 0 1-.553-1.37h.001l9.79-9.79a.8.8 0 0 1 .568-.236c.214 0 .416.084.568.236l9.787 9.787.005.004a.805.805 0 0 1-.002 1.135"/></g><defs><clipPath id="a"><path fill="#fff" d="M0 0h24v24H0z"/></clipPath></defs></svg>