<svg xmlns="http://www.w3.org/2000/svg" viewBox="0 0 24 24" id="map"><path fill="#292929" d="M12 0C7.111 0 3.134 3.977 3.134 8.866c0 1.61.722 3.34.752 3.413.233.553.693 1.413 1.025 1.917l6.079 9.21c.249.378.617.594 1.01.594s.761-.216 1.01-.593l6.08-9.211a14 14 0 0 0 1.024-1.917c.03-.072.752-1.803.752-3.413C20.866 3.977 16.889 0 12 0m7.153 11.874a13 13 0 0 1-.934 1.747l-6.08 9.211c-.12.182-.158.182-.278 0l-6.079-9.21a13 13 0 0 1-.934-1.748c-.009-.022-.67-1.615-.67-3.008 0-4.314 3.509-7.823 7.822-7.823s7.823 3.51 7.823 7.823c0 1.395-.664 2.993-.67 3.008"/><path fill="#292929" d="M12 4.173a4.7 4.7 0 0 0-4.694 4.693A4.7 4.7 0 0 0 12 13.56a4.7 4.7 0 0 0 4.694-4.694A4.7 4.7 0 0 0 12 4.173m0 8.344a3.655 3.655 0 0 1-3.65-3.65A3.655 3.655 0 0 1 12 5.215a3.655 3.655 0 0 1 3.65 3.65 3.655 3.655 0 0 1-3.65 3.65"/></svg>