<svg xmlns="http://www.w3.org/2000/svg" width="28" height="28" fill="none" id="receive"><path fill="#fff" d="M24.08 2.24H2.8a.56.56 0 0 0-.56.56v10.08a1.68 1.68 0 0 0 1.68 1.68H25.2a.56.56 0 0 0 .56-.56V3.92a1.68 1.68 0 0 0-1.68-1.68m.56 11.2H3.92a.56.56 0 0 1-.56-.56V3.36h20.72a.56.56 0 0 1 .56.56zM14 5.6a2.8 2.8 0 1 0 0 5.6 2.8 2.8 0 0 0 0-5.6m0 4.48a1.68 1.68 0 1 1 0-3.36 1.68 1.68 0 0 1 0 3.36m3.752 11.368a.54.54 0 0 1 0 .784l-3.36 3.36a.54.54 0 0 1-.784 0l-3.36-3.36a.555.555 0 0 1 .784-.784l2.408 2.397V17.36a.56.56 0 0 1 1.12 0v6.485l2.408-2.397a.54.54 0 0 1 .784 0"/></svg>