<svg xmlns="http://www.w3.org/2000/svg" fill="none" viewBox="0 0 28 28" id="search"><g clip-path="url(#a)"><path fill="#292929" d="m27.735 26.477-7.23-7.114c1.893-2.057 3.057-4.777 3.057-7.77C23.56 5.19 18.287 0 11.78 0S0 5.19 0 11.593s5.274 11.593 11.78 11.593c2.812 0 5.39-.972 7.415-2.589l7.258 7.142a.916.916 0 0 0 1.28 0 .883.883 0 0 0 .002-1.262M11.78 21.402c-5.505 0-9.968-4.392-9.968-9.809 0-5.418 4.463-9.81 9.967-9.81 5.506 0 9.968 4.392 9.968 9.81s-4.462 9.81-9.968 9.81Z"/></g><defs><clipPath id="a"><path fill="#fff" d="M0 0h28v28H0z"/></clipPath></defs></svg>