<svg xmlns="http://www.w3.org/2000/svg" viewBox="0 0 24 24" id="settings"><g fill="#292929" clip-path="url(#a)"><path d="m23.28 14.631-2.205-1.725c.029-.266.052-.577.052-.906s-.024-.64-.052-.906l2.208-1.726a1.08 1.08 0 0 0 .26-1.378L21.25 4.021a1.08 1.08 0 0 0-1.327-.477L17.32 4.589a9 9 0 0 0-1.562-.907L15.362.921A1.06 1.06 0 0 0 14.302 0h-4.6a1.06 1.06 0 0 0-1.06.911l-.396 2.771a9 9 0 0 0-1.56.908l-2.61-1.048a1.06 1.06 0 0 0-1.317.47L.462 7.985a1.07 1.07 0 0 0 .26 1.384l2.206 1.724a9 9 0 0 0-.052.906c0 .275.017.568.05.906L.718 14.633a1.08 1.08 0 0 0-.26 1.378l2.294 3.969c.249.456.81.664 1.327.477l2.603-1.045a9 9 0 0 0 1.563.907l.396 2.76c.065.525.52.921 1.06.921h4.6a1.06 1.06 0 0 0 1.059-.911l.397-2.77a9 9 0 0 0 1.56-.908l2.61 1.048a1.066 1.066 0 0 0 1.317-.469l2.306-3.989a1.08 1.08 0 0 0-.27-1.37m-.604.88-2.382 4.018-2.863-1.15a.5.5 0 0 0-.486.064 8.3 8.3 0 0 1-1.833 1.064.5.5 0 0 0-.306.392L14.3 23l-4.667-.053-.437-3.047a.5.5 0 0 0-.306-.392 8 8 0 0 1-1.83-1.061.5.5 0 0 0-.491-.068l-2.945 1.11-2.294-3.968c-.021-.04-.017-.084.007-.103l2.427-1.897a.5.5 0 0 0 .188-.456A8 8 0 0 1 3.876 12c0-.307.025-.645.077-1.065a.5.5 0 0 0-.188-.456L1.325 8.49l2.383-4.018 2.863 1.15a.5.5 0 0 0 .487-.064A8.2 8.2 0 0 1 8.89 4.494a.5.5 0 0 0 .305-.392L9.702 1l4.668.054.436 3.048a.5.5 0 0 0 .306.392 8 8 0 0 1 1.829 1.061.5.5 0 0 0 .49.067l2.946-1.111L22.67 8.48c.021.039.017.083-.007.102l-2.427 1.897a.5.5 0 0 0-.188.456c.038.304.077.669.077 1.065 0 .397-.039.761-.077 1.065a.5.5 0 0 0 .188.456l2.424 1.896c.026.021.03.066.015.094"/><path d="M12 7c-2.756 0-5 2.243-5 5s2.244 5 5 5c2.758 0 5-2.243 5-5s-2.242-5-5-5m0 9c-2.205 0-4-1.794-4-4s1.795-4 4-4c2.207 0 4 1.794 4 4s-1.793 4-4 4"/></g><defs><clipPath id="a"><path fill="#fff" d="M0 0h24v24H0z"/></clipPath></defs></svg>