<svg xmlns="http://www.w3.org/2000/svg" width="28" height="28" fill="none" id="utilities"><path fill="#fff" d="M24.08 22.4h-.56v-7.84h.56a1.684 1.684 0 1 0 .246-3.36l-9.273-8.277a1.69 1.69 0 0 0-2.128 0L3.674 11.2a1.686 1.686 0 0 0-1.557 1.803A1.685 1.685 0 0 0 3.92 14.56h.56v7.84h-.56a1.68 1.68 0 1 0 0 3.36h20.16a1.68 1.68 0 1 0 0-3.36m-1.68 0h-2.24v-7.84h2.24zm-6.16 0v-7.84h2.8v7.84zm-7.28 0v-7.84h2.8v7.84zm3.92-7.84h2.24v7.84h-2.24zm.773-10.763a.54.54 0 0 1 .672 0l8.288 7.403H5.387zM3.36 12.88a.56.56 0 0 1 .56-.56h20.16a.56.56 0 0 1 0 1.12H3.92a.56.56 0 0 1-.56-.56m2.24 1.68h2.24v7.84H5.6zm18.48 10.08H3.92a.56.56 0 0 1 0-1.12h20.16a.56.56 0 0 1 0 1.12"/></svg>